<?xml version="1.0" encoding="UTF-8"?>
<svg xmlns="http://www.w3.org/2000/svg" version="1.1" viewBox="0 0 128 128">
  <defs>
    <style>
      .cls-1 {
        fill: #fff;
        fill-rule: evenodd;
      }
    </style>
  </defs>
  <!-- Generator: Adobe Illustrator 28.7.1, SVG Export Plug-In . SVG Version: 1.2.0 Build 142)  -->
  <g>
    <g id="Layer_1">
      <path id="info_x5F_a" class="cls-1" d="M29,64c0-19.9,16.1-36,36-36s36,16.1,36,36-16.1,36-36,36-36-16.1-36-36ZM59.7,62.7c0-3,2.4-5.3,5.3-5.3s5.3,2.4,5.3,5.3v21.4c0,3-2.4,5.3-5.3,5.3s-5.3-2.4-5.3-5.3v-21.4ZM65,38.6c-3.7,0-6.7,3-6.7,6.7s3,6.7,6.7,6.7,6.7-3,6.7-6.7-3-6.7-6.7-6.7Z"/>
    </g>
  </g>
</svg>