<?xml version="1.0" encoding="UTF-8"?>
<svg xmlns="http://www.w3.org/2000/svg" version="1.1" viewBox="0 0 512 512">
  <defs>
    <style>
      .cls-1 {
        fill: #231f20;
      }
    </style>
  </defs>
  <!-- Generator: Adobe Illustrator 28.7.1, SVG Export Plug-In . SVG Version: 1.2.0 Build 142)  -->
  <g>
    <g id="Layer_1">
      <path class="cls-1" d="M280.2,87.6v146.7h147.6c11.9,0,21.5,9.6,21.5,21.5h0c0,11.9-9.6,21.5-21.5,21.5h-147.6v148.1c0,11.9-9.6,21.5-21.5,21.5h-4.9c-11.9,0-21.5-9.6-21.5-21.5v-148.1H84.6c-11.9,0-21.5-9.6-21.5-21.5h0c0-11.9,9.6-21.5,21.5-21.5h147.6V87.6c0-11.9,9.6-21.5,21.5-21.5h4.9c11.9,0,21.5,9.6,21.5,21.5Z"/>
    </g>
  </g>
</svg>