<?xml version="1.0" encoding="UTF-8"?>
<svg xmlns="http://www.w3.org/2000/svg" version="1.1" viewBox="0 0 512 512">
  <defs>
    <style>
      .cls-1 {
        fill: #fff;
      }
    </style>
  </defs>
  <!-- Generator: Adobe Illustrator 28.7.1, SVG Export Plug-In . SVG Version: 1.2.0 Build 142)  -->
  <g>
    <g id="Layer_1">
      <path class="cls-1" d="M374.9,230.2h-92v-97.4c0-13.9-11.2-25.1-25.1-25.1h-3.2c-13.9,0-25.1,11.2-25.1,25.1v97.4h-92.2c-13.9,0-25.1,11.2-25.1,25.1h0c0,13.9,11.2,25.1,25.1,25.1h92.2v107.8c0,13.9,11.2,25.1,25.1,25.1h3.2c13.9,0,25.1-11.2,25.1-25.1v-107.8h92c13.9,0,25.1-11.2,25.1-25.1h0c0-13.9-11.2-25.1-25.1-25.1Z"/>
    </g>
  </g>
</svg>