<?xml version="1.0" encoding="UTF-8"?>
<svg xmlns="http://www.w3.org/2000/svg" version="1.1" xmlns:xlink="http://www.w3.org/1999/xlink" viewBox="0 0 512 512">
  <defs>
    <style>
      .cls-1 {
        fill: #fff;
      }

      .cls-2, .cls-3, .cls-4 {
        fill: none;
      }

      .cls-5 {
        clip-path: url(#clippath-1);
      }

      .cls-3, .cls-4 {
        clip-rule: evenodd;
      }

      .cls-6 {
        clip-path: url(#clippath-2);
      }

      .cls-4 {
        clip-path: url(#clippath);
      }
    </style>
    <clipPath id="clippath">
      <polygon class="cls-3" points="-.7 513 512.3 513 512.3 0 -.7 0 -.7 513 -.7 513"/>
    </clipPath>
    <clipPath id="clippath-1">
      <polygon class="cls-4" points="-.7 0 512.3 0 512.3 513 -.7 513 -.7 0 -.7 0"/>
    </clipPath>
    <clipPath id="clippath-2">
      <polygon class="cls-2" points="-.7 513 512.3 513 512.3 0 -.7 0 -.7 513 -.7 513"/>
    </clipPath>
  </defs>
  <!-- Generator: Adobe Illustrator 28.7.1, SVG Export Plug-In . SVG Version: 1.2.0 Build 142)  -->
  <g>
    <g id="Layer_1">
      <g class="cls-5">
        <g class="cls-6">
          <path class="cls-1" d="M326.7,73.9c0,23.3-18.9,42.2-42.2,42.2s-42.2-18.9-42.2-42.2,18.9-42.2,42.2-42.2,42.2,18.9,42.2,42.2h0Z"/>
          <path class="cls-1" d="M277.6,294.1l14.3-71.3,10,23.2c2.6,5.3,6.9,9.5,12.7,11.6l43.8,14.8-40.7,51.2-40.1-29.6h0ZM391.7,238.7l-54.4-18s-30.1-69.7-31.2-71.8c-7.4-13.7-21.6-22.2-37-22.2s-12.1,1.6-18,4.2c-11.6,4.8-20.1,14.3-22.2,26.4l-11.6,56-31.2,152.1-71.3,86.1c-7.4,9-6.3,22.2,2.6,29.6,3.7,3.2,8.4,4.8,13.2,4.8s12.1-2.6,16.4-7.9l73.9-89.8c2.1-2.6,3.7-5.8,4.2-9l12.7-61.3,53.3,38.5-89.2,112.5c-2.6,3.2-3.2,6.9-1.6,10.6,1.6,3.7,4.8,6.3,8.4,6.9,3.7.5,7.4-1.1,10-4.2l76-96.1v78.2c0,11.1,7.9,20.6,19,22.2,5.8.5,12.1-1.6,16.4-5.3,4.2-4.2,6.9-9.5,6.9-15.8v-116.7c0-4.2-1.1-7.9-3.7-11.6l45.9-57.6c1.6.5,3.7.5,5.3.5,9,0,16.9-5.8,20.1-14.3,1.6-5.3,1.6-11.1-1.1-16.4-2.6-4.8-6.9-9-12.1-10.6h0Z"/>
          <path class="cls-1" d="M169.9,108.8c1.1-5.8,6.9-9.5,12.1-8.4,5.8,1.1,9.5,6.9,8.4,12.1-1.1,5.8-6.9,9.5-12.1,8.4-5.8-1.1-9.5-6.9-8.4-12.1h0ZM216.4,117.2c3.2-16.4-5.3-33.3-20.6-40.1-15.3-6.9-33.3-3.2-44.4,9.5-11.1,12.7-11.6,31.2-2.1,44.9-5.3-1.1-10.6,2.6-11.6,8.4l-19.5,97.2c-2.6,11.1,0,22.2,7.4,31.2,6.9,9,17.4,13.7,28.5,13.7,18-.5,32.7-13.7,35.9-31.2l19.5-97.2c.5-2.6,0-5.3-1.6-7.9-1.6-2.1-3.7-3.7-6.3-4.8h-1.1c8.4-4.8,14.3-13.7,15.8-23.8h0Z"/>
        </g>
      </g>
    </g>
  </g>
</svg>