<?xml version="1.0" encoding="UTF-8"?>
<svg xmlns="http://www.w3.org/2000/svg" version="1.1" viewBox="0 0 128 128">
  <defs>
    <style>
      .cls-1 {
        fill: #fff;
      }
    </style>
  </defs>
  <!-- Generator: Adobe Illustrator 28.7.1, SVG Export Plug-In . SVG Version: 1.2.0 Build 142)  -->
  <g>
    <g id="Layer_1">
      <g id="Explore_World">
        <circle class="cls-1" cx="64.9" cy="30.6" r="7.6"/>
        <path class="cls-1" d="M86.3,62.2c-.5-.9-1.2-1.6-2.2-1.9h0l-9.8-3.2s-5.4-12.6-5.6-12.9c-1.3-2.5-3.9-4-6.7-4s-2.2.3-3.2.8c-2.1.9-3.6,2.6-4,4.8l-2.1,10.1-5.6,27.4-12.8,15.5c-1.3,1.6-1.1,4,.5,5.3.7.6,1.5.9,2.4.9s2.2-.5,3-1.4l13.3-16.2c.4-.5.7-1,.8-1.6l2.3-11,9.6,6.9-16.1,20.3c-.5.6-.6,1.2-.3,1.9s.9,1.1,1.5,1.2c.7,0,1.3-.2,1.8-.8l13.7-17.3v14.1c0,2,1.4,3.7,3.4,4,1,0,2.2-.3,3-1,.8-.8,1.2-1.7,1.2-2.8v-21c0-.8-.2-1.4-.7-2.1l8.3-10.4c.3,0,.7,0,1,0,1.6,0,3-1,3.6-2.6.3-1,.3-2-.2-3ZM70.8,75.6l-7.2-5.3,2.6-12.8,1.8,4.2c.5,1,1.2,1.7,2.3,2.1l7.9,2.7-7.3,9.2Z"/>
        <path class="cls-1" d="M41.4,68.1c3.2,0,5.9-2.5,6.5-5.6l3.5-17.5c0-.5,0-1-.3-1.4-.3-.4-.7-.7-1.1-.9h-.2c1.5-.9,2.6-2.5,2.8-4.3h0c.6-2.9-1-6-3.7-7.2-2.8-1.2-6-.6-8,1.7-2,2.3-2.1,5.6-.4,8.1-1-.2-1.9.5-2.1,1.5l-3.5,17.5c-.5,2,0,4,1.3,5.6,1.2,1.6,3.1,2.5,5.1,2.5ZM44.2,36.9c.2-1,1.2-1.7,2.2-1.5,1,.2,1.7,1.2,1.5,2.2-.2,1-1.2,1.7-2.2,1.5-1-.2-1.7-1.2-1.5-2.2Z"/>
      </g>
    </g>
  </g>
</svg>