<?xml version="1.0" encoding="UTF-8"?>
<svg xmlns="http://www.w3.org/2000/svg" version="1.1" viewBox="0 0 128 128">
  <defs>
    <style>
      .cls-1 {
        fill: #fff;
      }
    </style>
  </defs>
  <!-- Generator: Adobe Illustrator 28.7.1, SVG Export Plug-In . SVG Version: 1.2.0 Build 142)  -->
  <g>
    <g id="Layer_1">
      <g id="download">
        <path class="cls-1" d="M62.2,84.3c1,1,2.6,1,3.5,0l25.3-24.6c1.6-1.6.5-4.4-1.8-4.4h-20.2v-27c0-2.8-2.3-5.1-5.1-5.1s-5.1,2.3-5.1,5.1v27h-20.2c-2.3,0-3.4,2.8-1.8,4.4l25.3,24.6Z"/>
        <path class="cls-1" d="M94.7,94.9h-61.4c-2.7,0-4.9,2.2-4.9,4.9s2.2,4.9,4.9,4.9h61.4c2.7,0,4.9-2.2,4.9-4.9s-2.2-4.9-4.9-4.9Z"/>
      </g>
    </g>
  </g>
</svg>