<?xml version="1.0" encoding="UTF-8"?>
<svg xmlns="http://www.w3.org/2000/svg" version="1.1" viewBox="0 0 128 128">
  <defs>
    <style>
      .cls-1, .cls-2 {
        fill: #fff;
      }

      .cls-3 {
        fill: none;
        stroke: #fff;
        stroke-linecap: round;
        stroke-miterlimit: 10;
        stroke-width: 10px;
      }

      .cls-2, .cls-4 {
        display: none;
      }

      .cls-5 {
        fill: #474747;
      }
    </style>
  </defs>
  <!-- Generator: Adobe Illustrator 28.7.1, SVG Export Plug-In . SVG Version: 1.2.0 Build 142)  -->
  <g>
    <g id="Layer_1">
      <rect id="bg" class="cls-5" width="128" height="128"/>
      <path id="_x3C_" class="cls-2" d="M52.7,64l32.5-31.7c2-2,2-5.2,0-7.1-2-2-5.3-2-7.3,0l-34.3,33.5c-3,3-3,7.7,0,10.7l34.3,33.5c2,2,5.3,2,7.3,0,2-2,2-5.2,0-7.1l-32.5-31.7Z"/>
      <path id="X" class="cls-2" d="M71.1,64l24.3-24.3c2-2,2-5.1,0-7.1-2-2-5.1-2-7.1,0l-24.3,24.3-24.3-24.3c-2-2-5.1-2-7.1,0-2,2-2,5.1,0,7.1l24.3,24.3-24.3,24.3c-2,2-2,5.1,0,7.1,1,1,2.3,1.5,3.5,1.5s2.6-.5,3.5-1.5l24.3-24.3,24.3,24.3c1,1,2.3,1.5,3.5,1.5s2.6-.5,3.5-1.5c2-2,2-5.1,0-7.1l-24.3-24.3Z"/>
      <g id="Explore_World" class="cls-4">
        <circle class="cls-1" cx="64.9" cy="30.6" r="7.6"/>
        <path class="cls-1" d="M86.3,62.2c-.5-.9-1.2-1.6-2.2-1.9h0l-9.8-3.2s-5.4-12.6-5.6-12.9c-1.3-2.5-3.9-4-6.7-4s-2.2.3-3.2.8c-2.1.9-3.6,2.6-4,4.8l-2.1,10.1-5.6,27.4-12.8,15.5c-1.3,1.6-1.1,4,.5,5.3.7.6,1.5.9,2.4.9s2.2-.5,3-1.4l13.3-16.2c.4-.5.7-1,.8-1.6l2.3-11,9.6,6.9-16.1,20.3c-.5.6-.6,1.2-.3,1.9s.9,1.1,1.5,1.2c.7,0,1.3-.2,1.8-.8l13.7-17.3v14.1c0,2,1.4,3.7,3.4,4,1,0,2.2-.3,3-1,.8-.8,1.2-1.7,1.2-2.8v-21c0-.8-.2-1.4-.7-2.1l8.3-10.4c.3,0,.7,0,1,0,1.6,0,3-1,3.6-2.6.3-1,.3-2-.2-3ZM70.8,75.6l-7.2-5.3,2.6-12.8,1.8,4.2c.5,1,1.2,1.7,2.3,2.1l7.9,2.7-7.3,9.2Z"/>
        <path class="cls-1" d="M41.4,68.1c3.2,0,5.9-2.5,6.5-5.6l3.5-17.5c0-.5,0-1-.3-1.4-.3-.4-.7-.7-1.1-.9h-.2c1.5-.9,2.6-2.5,2.8-4.3h0c.6-2.9-1-6-3.7-7.2-2.8-1.2-6-.6-8,1.7-2,2.3-2.1,5.6-.4,8.1-1-.2-1.9.5-2.1,1.5l-3.5,17.5c-.5,2,0,4,1.3,5.6,1.2,1.6,3.1,2.5,5.1,2.5ZM44.2,36.9c.2-1,1.2-1.7,2.2-1.5,1,.2,1.7,1.2,1.5,2.2-.2,1-1.2,1.7-2.2,1.5-1-.2-1.7-1.2-1.5-2.2Z"/>
      </g>
      <path id="Create_Avatar" class="cls-1" d="M101,59h-30v-30c0-2.8-2.2-5-5-5s-5,2.2-5,5v30h-30c-2.8,0-5,2.2-5,5s2.2,5,5,5h30v30c0,2.8,2.2,5,5,5s5-2.2,5-5v-30h30c2.8,0,5-2.2,5-5s-2.2-5-5-5Z"/>
      <g id="thumbnail_x5F_menu" class="cls-4">
        <line class="cls-3" x1="89.3" y1="48.8" x2="38.7" y2="48.8"/>
        <line class="cls-3" x1="89.3" y1="79.2" x2="38.7" y2="79.2"/>
      </g>
      <g id="download" class="cls-4">
        <path class="cls-1" d="M62.2,84.3c1,1,2.6,1,3.5,0l25.3-24.6c1.6-1.6.5-4.4-1.8-4.4h-20.2v-27c0-2.8-2.3-5.1-5.1-5.1s-5.1,2.3-5.1,5.1v27h-20.2c-2.3,0-3.4,2.8-1.8,4.4l25.3,24.6Z"/>
        <path class="cls-1" d="M94.7,94.9h-61.4c-2.7,0-4.9,2.2-4.9,4.9s2.2,4.9,4.9,4.9h61.4c2.7,0,4.9-2.2,4.9-4.9s-2.2-4.9-4.9-4.9Z"/>
      </g>
    </g>
  </g>
</svg>