<?xml version="1.0" encoding="UTF-8"?>
<svg xmlns="http://www.w3.org/2000/svg" version="1.1" viewBox="0 0 128 128">
  <defs>
    <style>
      .cls-1 {
        fill: #fff;
      }
    </style>
  </defs>
  <!-- Generator: Adobe Illustrator 28.7.1, SVG Export Plug-In . SVG Version: 1.2.0 Build 142)  -->
  <g>
    <g id="Layer_1">
      <g id="Explore_World">
        <circle class="cls-1" cx="71.3" cy="25.4" r="8.7"/>
        <path class="cls-1" d="M95.9,61.8c-.5-1-1.4-1.9-2.5-2.2h0l-11.3-3.7s-6.2-14.4-6.5-14.9c-1.5-2.8-4.5-4.6-7.7-4.6s-2.5.3-3.7.9c-2.4,1-4.2,3-4.6,5.5l-2.4,11.6-6.5,31.5-14.8,17.8c-1.5,1.9-1.3,4.6.5,6.1.8.7,1.7,1,2.7,1s2.5-.5,3.4-1.6l15.3-18.6c.4-.5.8-1.2.9-1.9l2.6-12.7,11,8-18.5,23.3c-.5.7-.7,1.4-.3,2.2s1,1.3,1.7,1.4c.8.1,1.5-.2,2.1-.9l15.7-19.9v16.2c0,2.3,1.6,4.3,3.9,4.6,1.2.1,2.5-.3,3.4-1.1.9-.9,1.4-2,1.4-3.3v-24.2c0-.9-.2-1.6-.8-2.4l9.5-11.9c.3.1.8.1,1.1.1,1.9,0,3.5-1.2,4.2-3,.3-1.1.3-2.3-.2-3.4ZM78.2,77.2l-8.3-6.1,3-14.8,2.1,4.8c.5,1.1,1.4,2,2.6,2.4l9.1,3.1-8.4,10.6Z"/>
        <path class="cls-1" d="M44.3,68.5c3.7-.1,6.8-2.8,7.4-6.5l4-20.1c.1-.5,0-1.1-.3-1.6-.3-.4-.8-.8-1.3-1h-.2c1.7-1,3-2.8,3.3-4.9h0c.7-3.4-1.1-6.9-4.3-8.3-3.2-1.4-6.9-.7-9.2,2-2.3,2.6-2.4,6.5-.4,9.3-1.1-.2-2.2.5-2.4,1.7l-4,20.1c-.5,2.3,0,4.6,1.5,6.5,1.4,1.9,3.6,2.8,5.9,2.8ZM47.5,32.6c.2-1.2,1.4-2,2.5-1.7,1.2.2,2,1.4,1.7,2.5-.2,1.2-1.4,2-2.5,1.7-1.2-.2-2-1.4-1.7-2.5Z"/>
      </g>
    </g>
  </g>
</svg>